<svg version="1.1" id="Layer_1" xmlns="http://www.w3.org/2000/svg" xmlns:xlink="http://www.w3.org/1999/xlink" x="0px" y="0px"
	 width="100%" viewBox="0 0 1063 1243" enable-background="new 0 0 1063 1243" xml:space="preserve">
<path fill="#FFFFFF" opacity="1.000000" stroke="none" 
	d="
M680.000000,1244.000000 
	C453.333344,1244.000000 227.166672,1244.000000 1.000000,1244.000000 
	C1.000000,829.666687 1.000000,415.333344 1.000000,1.000000 
	C355.333344,1.000000 709.666687,1.000000 1064.000000,1.000000 
	C1064.000000,415.333344 1064.000000,829.666687 1064.000000,1244.000000 
	C936.166687,1244.000000 808.333313,1244.000000 680.000000,1244.000000 
M886.955383,167.444962 
	C881.806458,173.984085 876.793030,180.635513 871.484802,187.042679 
	C849.887939,213.110580 826.711670,237.703308 801.906616,260.740753 
	C782.872437,278.418488 764.141663,296.456726 744.509338,313.448944 
	C711.534363,341.989563 677.943237,369.818115 644.623535,397.960693 
	C607.359863,429.434418 570.016663,460.814880 532.881775,492.439880 
	C500.045105,520.404419 467.583221,548.791199 437.468719,579.747253 
	C414.059509,603.810669 392.634521,629.404541 375.182037,658.200989 
	C355.848663,690.100952 342.890564,724.458679 339.463196,761.524719 
	C337.531677,782.413513 338.231903,803.846313 340.455994,824.745728 
	C343.519623,853.533569 351.443848,881.467224 361.499664,908.683044 
	C364.467194,916.714600 367.719452,924.640930 370.841217,932.615417 
	C371.261993,932.495361 371.682770,932.375366 372.103577,932.255310 
	C371.843628,930.754272 371.618225,929.246277 371.318481,927.753296 
	C367.976807,911.109680 365.662628,894.477783 367.894714,877.369141 
	C370.803864,855.070618 378.218689,834.454895 389.248138,815.010376 
	C408.498749,781.072388 435.171417,753.417419 464.082764,727.851929 
	C500.572968,695.584534 540.285217,667.502869 580.736206,640.490417 
	C633.214050,605.446594 686.089294,570.994385 738.392456,535.693420 
	C783.828613,505.027100 827.710449,472.265747 867.959290,434.869934 
	C902.077637,403.169952 932.527405,368.516357 954.700989,327.238373 
	C979.080078,281.854645 988.393616,233.587006 980.776306,182.494705 
	C974.910461,143.149658 960.194275,106.903679 940.321777,72.638306 
	C939.974854,72.040031 939.292542,71.636261 938.743225,71.119659 
	C935.554993,79.724846 932.799255,88.110588 929.379822,96.216354 
	C918.636230,121.684029 903.895508,144.815491 886.955383,167.444962 
M220.146591,350.643677 
	C199.251968,362.731964 180.229218,377.200806 164.205429,395.345367 
	C142.315079,420.132904 128.819138,448.340576 130.080231,482.209808 
	C130.239212,486.480011 128.790131,488.778320 125.254196,490.879913 
	C109.991585,499.951294 95.924553,510.550323 84.827377,524.617554 
	C73.481361,539.000183 68.893433,554.913330 73.740410,573.122070 
	C78.088676,589.457275 87.939621,602.321350 99.089317,614.369202 
	C104.087097,619.769531 109.626236,624.668884 115.470505,630.329041 
	C117.918556,589.357117 138.311966,561.847107 173.745621,545.789429 
	C209.293198,529.680054 246.071014,528.962036 282.525482,542.780518 
	C314.257965,554.809082 335.608582,576.968079 343.477234,610.766785 
	C344.554657,615.394714 345.252563,620.110901 346.306091,625.749023 
	C441.033722,539.684753 535.094788,454.226166 629.206604,368.721405 
	C613.915344,351.839386 596.250916,339.243958 576.629150,329.297302 
	C534.560120,307.971680 489.350128,299.750458 442.755707,298.280579 
	C425.714691,297.742981 408.562286,298.807434 391.540558,300.151764 
	C375.873474,301.389069 360.174835,303.239807 344.732849,306.121185 
	C301.122650,314.258667 259.386993,327.964905 220.146591,350.643677 
M832.089294,571.638000 
	C803.478394,585.476196 775.001648,599.600708 746.226013,613.087341 
	C699.670288,634.907227 652.722839,655.898254 606.308716,678.011353 
	C566.882446,696.795227 528.883118,718.220947 493.689209,744.282532 
	C463.459686,766.667847 436.478516,792.145996 417.238586,824.984436 
	C407.131439,842.235046 399.673065,860.664856 396.385315,880.228821 
	C394.039276,894.189148 394.602631,908.657410 394.161621,922.908142 
	C394.014313,927.669617 394.776825,932.459290 395.123444,937.236084 
	C396.688568,936.492554 397.239929,935.703369 397.655212,934.848145 
	C406.763641,916.089783 419.296234,899.728516 433.226532,884.388794 
	C459.212555,855.773560 490.610107,834.320801 524.484131,816.298584 
	C568.290283,792.992249 614.894653,776.532410 661.871338,761.112610 
	C706.433838,746.485229 751.321716,732.831177 795.731689,717.762390 
	C834.379395,704.648926 872.032349,688.997192 906.935913,667.444397 
	C932.504150,651.656128 955.776001,633.143860 974.051697,609.062439 
	C991.906616,585.535278 1004.521667,559.491699 1008.999451,530.032593 
	C1011.081909,516.332031 1013.570679,502.528381 1013.746887,488.744202 
	C1013.970398,471.258179 1012.080627,453.741333 1010.975647,436.245728 
	C1010.780579,433.156860 1009.979614,430.104736 1009.434631,427.039886 
	C1008.906616,424.070465 1008.347900,421.106476 1007.637390,417.241180 
	C992.655762,450.565826 970.131470,476.608063 943.547668,499.377930 
	C909.824890,528.262634 872.004272,550.896545 832.089294,571.638000 
M989.111450,772.619080 
	C1001.796204,754.383667 1010.603027,734.409607 1016.063904,712.902283 
	C1021.487488,691.541382 1021.130981,670.053345 1018.665710,647.168762 
	C1005.713013,666.126343 998.540222,673.289062 980.120544,685.676514 
	C951.773926,704.739990 920.904602,718.937256 889.144043,730.992554 
	C848.882690,746.274475 808.250732,760.595398 767.639221,774.935974 
	C705.703552,796.806458 643.426697,817.730164 581.723145,840.231018 
	C541.517578,854.892456 502.461700,872.479187 466.656677,896.361084 
	C448.390747,908.544434 431.534698,922.330139 420.706085,942.064148 
	C413.607300,955.000977 411.023193,968.396667 415.244965,983.031189 
	C420.209656,1000.240967 430.227539,1014.134705 442.468292,1026.605835 
	C467.245026,1051.848877 497.180725,1069.927490 527.670654,1087.181885 
	C528.322632,1087.550781 529.110779,1087.679077 530.062256,1087.994873 
	C529.887695,1087.273315 529.910339,1086.884155 529.726868,1086.694336 
	C529.035522,1085.979858 528.275391,1085.332153 527.544067,1084.656128 
	C510.755859,1069.140381 494.500214,1053.157471 482.136566,1033.691162 
	C474.623230,1021.861511 469.348816,1009.064148 468.198639,995.141541 
	C467.185150,982.874207 471.841522,971.658875 480.079254,962.794250 
	C486.923737,955.429138 494.750031,948.674072 503.092865,943.063538 
	C523.446167,929.376099 546.515015,921.412048 569.694458,914.089600 
	C610.188293,901.297546 651.723938,892.646240 693.243286,884.003235 
	C725.775330,877.231079 758.487854,871.251709 790.846558,863.741089 
	C826.295349,855.513245 861.508118,846.225403 896.680420,836.861328 
	C934.872681,826.693298 966.097473,806.078674 989.111450,772.619080 
M531.800720,1089.218994 
	C531.579163,1088.953247 531.357605,1088.687500 531.135986,1088.421753 
	C531.206360,1088.795776 531.276794,1089.169800 531.800720,1089.218994 
z"/>
<path fill="#FF66C4" opacity="1.000000" stroke="none" 
	d="
M887.170044,167.160660 
	C903.895508,144.815491 918.636230,121.684029 929.379822,96.216354 
	C932.799255,88.110588 935.554993,79.724846 938.743225,71.119659 
	C939.292542,71.636261 939.974854,72.040031 940.321777,72.638306 
	C960.194275,106.903679 974.910461,143.149658 980.776306,182.494705 
	C988.393616,233.587006 979.080078,281.854645 954.700989,327.238373 
	C932.527405,368.516357 902.077637,403.169952 867.959290,434.869934 
	C827.710449,472.265747 783.828613,505.027100 738.392456,535.693420 
	C686.089294,570.994385 633.214050,605.446594 580.736206,640.490417 
	C540.285217,667.502869 500.572968,695.584534 464.082764,727.851929 
	C435.171417,753.417419 408.498749,781.072388 389.248138,815.010376 
	C378.218689,834.454895 370.803864,855.070618 367.894714,877.369141 
	C365.662628,894.477783 367.976807,911.109680 371.318481,927.753296 
	C371.618225,929.246277 371.843628,930.754272 372.103577,932.255310 
	C371.682770,932.375366 371.261993,932.495361 370.841217,932.615417 
	C367.719452,924.640930 364.467194,916.714600 361.499664,908.683044 
	C351.443848,881.467224 343.519623,853.533569 340.455994,824.745728 
	C338.231903,803.846313 337.531677,782.413513 339.463196,761.524719 
	C342.890564,724.458679 355.848663,690.100952 375.182037,658.200989 
	C392.634521,629.404541 414.059509,603.810669 437.468719,579.747253 
	C467.583221,548.791199 500.045105,520.404419 532.881775,492.439880 
	C570.016663,460.814880 607.359863,429.434418 644.623535,397.960693 
	C677.943237,369.818115 711.534363,341.989563 744.509338,313.448944 
	C764.141663,296.456726 782.872437,278.418488 801.906616,260.740753 
	C826.711670,237.703308 849.887939,213.110580 871.484802,187.042679 
	C876.793030,180.635513 881.806458,173.984085 887.170044,167.160660 
z"/>
<path fill="#FF66C4" opacity="1.000000" stroke="none" 
	d="
M220.450714,350.440582 
	C259.386993,327.964905 301.122650,314.258667 344.732849,306.121185 
	C360.174835,303.239807 375.873474,301.389069 391.540558,300.151764 
	C408.562286,298.807434 425.714691,297.742981 442.755707,298.280579 
	C489.350128,299.750458 534.560120,307.971680 576.629150,329.297302 
	C596.250916,339.243958 613.915344,351.839386 629.206604,368.721405 
	C535.094788,454.226166 441.033722,539.684753 346.306091,625.749023 
	C345.252563,620.110901 344.554657,615.394714 343.477234,610.766785 
	C335.608582,576.968079 314.257965,554.809082 282.525482,542.780518 
	C246.071014,528.962036 209.293198,529.680054 173.745621,545.789429 
	C138.311966,561.847107 117.918556,589.357117 115.470505,630.329041 
	C109.626236,624.668884 104.087097,619.769531 99.089317,614.369202 
	C87.939621,602.321350 78.088676,589.457275 73.740410,573.122070 
	C68.893433,554.913330 73.481361,539.000183 84.827377,524.617554 
	C95.924553,510.550323 109.991585,499.951294 125.254196,490.879913 
	C128.790131,488.778320 130.239212,486.480011 130.080231,482.209808 
	C128.819138,448.340576 142.315079,420.132904 164.205429,395.345367 
	C180.229218,377.200806 199.251968,362.731964 220.450714,350.440582 
M262.039734,366.897736 
	C258.137939,370.975800 254.185760,375.006989 250.343063,379.140015 
	C233.698441,397.042206 217.016785,414.911072 200.529160,432.957031 
	C197.768219,435.978973 195.466858,439.622314 193.796844,443.355927 
	C192.938400,445.275146 193.209961,448.519958 194.362137,450.226349 
	C195.114273,451.340240 198.822739,451.625427 200.406921,450.780975 
	C204.417847,448.643005 208.164230,445.881256 211.664093,442.948669 
	C215.011642,440.143799 217.914917,436.808624 221.378738,433.340820 
	C223.322800,441.335022 225.025070,448.334869 226.727341,455.334747 
	C228.185028,452.473694 228.744568,449.802917 229.011917,447.103149 
	C230.458099,432.499359 232.909180,418.448212 241.300064,405.644012 
	C249.376892,393.319000 255.882446,379.964294 263.531616,366.780975 
	C263.562897,366.394196 263.594147,366.007446 263.625427,365.620667 
	C263.315979,365.999115 263.006500,366.377563 262.039734,366.897736 
z"/>
<path fill="#5271FF" opacity="1.000000" stroke="none" 
	d="
M832.408081,571.444946 
	C872.004272,550.896545 909.824890,528.262634 943.547668,499.377930 
	C970.131470,476.608063 992.655762,450.565826 1007.637390,417.241180 
	C1008.347900,421.106476 1008.906616,424.070465 1009.434631,427.039886 
	C1009.979614,430.104736 1010.780579,433.156860 1010.975647,436.245728 
	C1012.080627,453.741333 1013.970398,471.258179 1013.746887,488.744202 
	C1013.570679,502.528381 1011.081909,516.332031 1008.999451,530.032593 
	C1004.521667,559.491699 991.906616,585.535278 974.051697,609.062439 
	C955.776001,633.143860 932.504150,651.656128 906.935913,667.444397 
	C872.032349,688.997192 834.379395,704.648926 795.731689,717.762390 
	C751.321716,732.831177 706.433838,746.485229 661.871338,761.112610 
	C614.894653,776.532410 568.290283,792.992249 524.484131,816.298584 
	C490.610107,834.320801 459.212555,855.773560 433.226532,884.388794 
	C419.296234,899.728516 406.763641,916.089783 397.655212,934.848145 
	C397.239929,935.703369 396.688568,936.492554 395.123444,937.236084 
	C394.776825,932.459290 394.014313,927.669617 394.161621,922.908142 
	C394.602631,908.657410 394.039276,894.189148 396.385315,880.228821 
	C399.673065,860.664856 407.131439,842.235046 417.238586,824.984436 
	C436.478516,792.145996 463.459686,766.667847 493.689209,744.282532 
	C528.883118,718.220947 566.882446,696.795227 606.308716,678.011353 
	C652.722839,655.898254 699.670288,634.907227 746.226013,613.087341 
	C775.001648,599.600708 803.478394,585.476196 832.408081,571.444946 
z"/>
<path fill="#39B6FF" opacity="1.000000" stroke="none" 
	d="
M988.924927,772.924561 
	C966.097473,806.078674 934.872681,826.693298 896.680420,836.861328 
	C861.508118,846.225403 826.295349,855.513245 790.846558,863.741089 
	C758.487854,871.251709 725.775330,877.231079 693.243286,884.003235 
	C651.723938,892.646240 610.188293,901.297546 569.694458,914.089600 
	C546.515015,921.412048 523.446167,929.376099 503.092865,943.063538 
	C494.750031,948.674072 486.923737,955.429138 480.079254,962.794250 
	C471.841522,971.658875 467.185150,982.874207 468.198639,995.141541 
	C469.348816,1009.064148 474.623230,1021.861511 482.136566,1033.691162 
	C494.500214,1053.157471 510.755859,1069.140381 527.544067,1084.656128 
	C528.275391,1085.332153 529.035522,1085.979858 529.726868,1086.694336 
	C529.910339,1086.884155 529.887695,1087.273315 530.062256,1087.994873 
	C529.110779,1087.679077 528.322632,1087.550781 527.670654,1087.181885 
	C497.180725,1069.927490 467.245026,1051.848877 442.468292,1026.605835 
	C430.227539,1014.134705 420.209656,1000.240967 415.244965,983.031189 
	C411.023193,968.396667 413.607300,955.000977 420.706085,942.064148 
	C431.534698,922.330139 448.390747,908.544434 466.656677,896.361084 
	C502.461700,872.479187 541.517578,854.892456 581.723145,840.231018 
	C643.426697,817.730164 705.703552,796.806458 767.639221,774.935974 
	C808.250732,760.595398 848.882690,746.274475 889.144043,730.992554 
	C920.904602,718.937256 951.773926,704.739990 980.120544,685.676514 
	C998.540222,673.289062 1005.713013,666.126343 1018.665710,647.168762 
	C1021.130981,670.053345 1021.487488,691.541382 1016.063904,712.902283 
	C1010.603027,734.409607 1001.796204,754.383667 988.924927,772.924561 
z"/>
<path fill="#39B6FF" opacity="1.000000" stroke="none" 
	d="
M531.573975,1089.381348 
	C531.276794,1089.169800 531.206360,1088.795776 531.135986,1088.421753 
	C531.357605,1088.687500 531.579163,1088.953247 531.573975,1089.381348 
z"/>
<path fill="#FFFCFE" opacity="1.000000" stroke="none" 
	d="
M263.078369,367.062012 
	C255.882446,379.964294 249.376892,393.319000 241.300064,405.644012 
	C232.909180,418.448212 230.458099,432.499359 229.011917,447.103149 
	C228.744568,449.802917 228.185028,452.473694 226.727341,455.334747 
	C225.025070,448.334869 223.322800,441.335022 221.378738,433.340820 
	C217.914917,436.808624 215.011642,440.143799 211.664093,442.948669 
	C208.164230,445.881256 204.417847,448.643005 200.406921,450.780975 
	C198.822739,451.625427 195.114273,451.340240 194.362137,450.226349 
	C193.209961,448.519958 192.938400,445.275146 193.796844,443.355927 
	C195.466858,439.622314 197.768219,435.978973 200.529160,432.957031 
	C217.016785,414.911072 233.698441,397.042206 250.343063,379.140015 
	C254.185760,375.006989 258.137939,370.975800 262.464661,366.902191 
	C262.889587,366.906647 263.078369,367.062012 263.078369,367.062012 
z"/>
<path fill="#FFFCFE" opacity="1.000000" stroke="none" 
	d="
M262.793335,366.831329 
	C263.006500,366.377563 263.315979,365.999115 263.625427,365.620667 
	C263.594147,366.007446 263.562897,366.394196 263.304993,366.921509 
	C263.078369,367.062012 262.889587,366.906647 262.793335,366.831329 
z"/>
</svg>